<svg width="58" height="50" viewBox="0 0 58 50" fill="none" xmlns="http://www.w3.org/2000/svg">
<path fill-rule="evenodd" clip-rule="evenodd" d="M58.0755 8.50452C49.4762 12.7233 45.1766 17.6803 45.1766 23.3756C48.8419 23.7975 51.8727 25.2916 54.2693 27.858C56.6658 30.4245 57.8641 33.3951 57.8641 36.7701C57.8641 40.3561 56.7011 43.3795 54.375 45.8405C52.049 48.3014 49.1238 49.5319 45.5995 49.5319C41.6522 49.5319 38.2337 47.9323 35.3438 44.733C32.4538 41.5338 31.0089 37.6491 31.0089 33.0787C31.0089 19.3677 38.6918 8.64518 54.0578 0.910767L58.0755 8.50452ZM27.112 8.50452C18.4421 12.7233 14.1073 17.6803 14.1073 23.3756C17.8431 23.7975 20.9092 25.2916 23.3057 27.858C25.7023 30.4245 26.9005 33.3951 26.9005 36.7701C26.9005 40.3561 25.7199 43.3795 23.3586 45.8405C20.9973 48.3014 18.0545 49.5319 14.5302 49.5319C10.583 49.5319 7.18205 47.9323 4.32734 44.733C1.47264 41.5338 0.0453129 37.6491 0.0453129 33.0787C0.0453129 19.3677 7.69298 8.64518 22.9885 0.910767L27.112 8.50452Z" fill="#D6D6D6"/>
</svg>
